<?xml version="1.0" encoding="UTF-8" standalone="no"?>
<!DOCTYPE svg PUBLIC "-//W3C//DTD SVG 1.1//EN"
 "http://www.w3.org/Graphics/SVG/1.1/DTD/svg11.dtd">
<!-- Generated by graphviz version 2.47.0 (20210316.0004)
 -->
<!-- Title: dependencies Pages: 1 -->
<svg width="858pt" height="284pt"
 viewBox="0.00 0.00 858.00 284.00" xmlns="http://www.w3.org/2000/svg" xmlns:xlink="http://www.w3.org/1999/xlink">
<g id="graph0" class="graph" transform="scale(1 1) rotate(0) translate(4 280)">
<title>dependencies</title>
<polygon fill="white" stroke="transparent" points="-4,4 -4,-280 854,-280 854,4 -4,4"/>
<text text-anchor="start" x="404.01" y="-42.4" font-family="Times-12" font-weight="bold" font-size="14.00">Legend</text>
<polygon fill="#ffffb3" stroke="transparent" points="191,-10 191,-30 211,-30 211,-10 191,-10"/>
<text text-anchor="start" x="214.63" y="-15.4" font-family="Times-12" font-size="14.00"> &#160;Declarations</text>
<polygon fill="#8dd3c7" stroke="transparent" points="304,-10 304,-30 324,-30 324,-10 304,-10"/>
<text text-anchor="start" x="327.73" y="-15.4" font-family="Times-12" font-size="14.00"> &#160;Module</text>
<polygon fill="#80b1d3" stroke="transparent" points="390,-10 390,-30 410,-30 410,-10 390,-10"/>
<text text-anchor="start" x="413.78" y="-15.4" font-family="Times-12" font-size="14.00"> &#160;Bootstrap</text>
<polygon fill="#fdb462" stroke="transparent" points="487,-10 487,-30 507,-30 507,-10 487,-10"/>
<text text-anchor="start" x="510.67" y="-15.4" font-family="Times-12" font-size="14.00"> &#160;Providers</text>
<polygon fill="#fb8072" stroke="transparent" points="583,-10 583,-30 603,-30 603,-10 583,-10"/>
<text text-anchor="start" x="606.73" y="-15.4" font-family="Times-12" font-size="14.00"> &#160;Exports</text>
<g id="clust1" class="cluster">
<title>cluster_EditAccountModule</title>
<polygon fill="none" stroke="black" stroke-dasharray="1,5" points="8,-70 8,-268 842,-268 842,-70 8,-70"/>
</g>
<g id="clust4" class="cluster">
<title>cluster_EditAccountModule_exports</title>
<polygon fill="none" stroke="black" points="16,-208 16,-260 834,-260 834,-208 16,-208"/>
</g>
<g id="clust3" class="cluster">
<title>cluster_EditAccountModule_imports</title>
<polygon fill="none" stroke="black" points="33,-78 33,-130 819,-130 819,-78 33,-78"/>
</g>
<!-- IonButton -->
<g id="node1" class="node">
<title>IonButton</title>
<polygon fill="#8dd3c7" stroke="black" points="811.28,-122 808.28,-126 787.28,-126 784.28,-122 738.72,-122 738.72,-86 811.28,-86 811.28,-122"/>
<text text-anchor="middle" x="775" y="-99.8" font-family="Times,serif" font-size="14.00">IonButton</text>
</g>
<!-- EditAccountModule -->
<g id="node10" class="node">
<title>EditAccountModule</title>
<polygon fill="#8dd3c7" stroke="black" points="466.31,-187 463.31,-191 442.31,-191 439.31,-187 335.69,-187 335.69,-151 466.31,-151 466.31,-187"/>
<text text-anchor="middle" x="401" y="-164.8" font-family="Times,serif" font-size="14.00">EditAccountModule</text>
</g>
<!-- IonButton&#45;&gt;EditAccountModule -->
<g id="edge1" class="edge">
<title>IonButton&#45;&gt;EditAccountModule</title>
<path fill="none" stroke="black" d="M744.24,-122.22C744.24,-140.83 744.24,-167 744.24,-167 744.24,-167 476.37,-167 476.37,-167"/>
<polygon fill="black" stroke="black" points="476.37,-163.5 466.37,-167 476.37,-170.5 476.37,-163.5"/>
</g>
<!-- IonButtons -->
<g id="node2" class="node">
<title>IonButtons</title>
<polygon fill="#8dd3c7" stroke="black" points="720.22,-122 717.22,-126 696.22,-126 693.22,-122 641.78,-122 641.78,-86 720.22,-86 720.22,-122"/>
<text text-anchor="middle" x="681" y="-99.8" font-family="Times,serif" font-size="14.00">IonButtons</text>
</g>
<!-- IonButtons&#45;&gt;EditAccountModule -->
<g id="edge2" class="edge">
<title>IonButtons&#45;&gt;EditAccountModule</title>
<path fill="none" stroke="black" d="M646.01,-122.03C646.01,-139.06 646.01,-162 646.01,-162 646.01,-162 476.34,-162 476.34,-162"/>
<polygon fill="black" stroke="black" points="476.34,-158.5 466.34,-162 476.34,-165.5 476.34,-158.5"/>
</g>
<!-- IonContent -->
<g id="node3" class="node">
<title>IonContent</title>
<polygon fill="#8dd3c7" stroke="black" points="623.49,-122 620.49,-126 599.49,-126 596.49,-122 544.51,-122 544.51,-86 623.49,-86 623.49,-122"/>
<text text-anchor="middle" x="584" y="-99.8" font-family="Times,serif" font-size="14.00">IonContent</text>
</g>
<!-- IonContent&#45;&gt;EditAccountModule -->
<g id="edge3" class="edge">
<title>IonContent&#45;&gt;EditAccountModule</title>
<path fill="none" stroke="black" d="M598.92,-122.24C598.92,-137.57 598.92,-157 598.92,-157 598.92,-157 476.35,-157 476.35,-157"/>
<polygon fill="black" stroke="black" points="476.35,-153.5 466.35,-157 476.35,-160.5 476.35,-153.5"/>
</g>
<!-- IonHeader -->
<g id="node4" class="node">
<title>IonHeader</title>
<polygon fill="#8dd3c7" stroke="black" points="526.57,-122 523.57,-126 502.57,-126 499.57,-122 451.43,-122 451.43,-86 526.57,-86 526.57,-122"/>
<text text-anchor="middle" x="489" y="-99.8" font-family="Times,serif" font-size="14.00">IonHeader</text>
</g>
<!-- IonHeader&#45;&gt;EditAccountModule -->
<g id="edge4" class="edge">
<title>IonHeader&#45;&gt;EditAccountModule</title>
<path fill="none" stroke="black" d="M458.81,-122.11C458.81,-122.11 458.81,-140.99 458.81,-140.99"/>
<polygon fill="black" stroke="black" points="455.31,-140.99 458.81,-150.99 462.31,-140.99 455.31,-140.99"/>
</g>
<!-- IonInput -->
<g id="node5" class="node">
<title>IonInput</title>
<polygon fill="#8dd3c7" stroke="black" points="433.21,-122 430.21,-126 409.21,-126 406.21,-122 368.79,-122 368.79,-86 433.21,-86 433.21,-122"/>
<text text-anchor="middle" x="401" y="-99.8" font-family="Times,serif" font-size="14.00">IonInput</text>
</g>
<!-- IonInput&#45;&gt;EditAccountModule -->
<g id="edge5" class="edge">
<title>IonInput&#45;&gt;EditAccountModule</title>
<path fill="none" stroke="black" d="M401,-122.11C401,-122.11 401,-140.99 401,-140.99"/>
<polygon fill="black" stroke="black" points="397.5,-140.99 401,-150.99 404.5,-140.99 397.5,-140.99"/>
</g>
<!-- IonItem -->
<g id="node6" class="node">
<title>IonItem</title>
<polygon fill="#8dd3c7" stroke="black" points="351.32,-122 348.32,-126 327.32,-126 324.32,-122 290.68,-122 290.68,-86 351.32,-86 351.32,-122"/>
<text text-anchor="middle" x="321" y="-99.8" font-family="Times,serif" font-size="14.00">IonItem</text>
</g>
<!-- IonItem&#45;&gt;EditAccountModule -->
<g id="edge6" class="edge">
<title>IonItem&#45;&gt;EditAccountModule</title>
<path fill="none" stroke="black" d="M343.5,-122.11C343.5,-122.11 343.5,-140.99 343.5,-140.99"/>
<polygon fill="black" stroke="black" points="340,-140.99 343.5,-150.99 347,-140.99 340,-140.99"/>
</g>
<!-- IonList -->
<g id="node7" class="node">
<title>IonList</title>
<polygon fill="#8dd3c7" stroke="black" points="273.44,-122 270.44,-126 249.44,-126 246.44,-122 216.56,-122 216.56,-86 273.44,-86 273.44,-122"/>
<text text-anchor="middle" x="245" y="-99.8" font-family="Times,serif" font-size="14.00">IonList</text>
</g>
<!-- IonList&#45;&gt;EditAccountModule -->
<g id="edge7" class="edge">
<title>IonList&#45;&gt;EditAccountModule</title>
<path fill="none" stroke="black" d="M250.24,-122.24C250.24,-137.57 250.24,-157 250.24,-157 250.24,-157 325.75,-157 325.75,-157"/>
<polygon fill="black" stroke="black" points="325.75,-160.5 335.75,-157 325.75,-153.5 325.75,-160.5"/>
</g>
<!-- IonTitle -->
<g id="node8" class="node">
<title>IonTitle</title>
<polygon fill="#8dd3c7" stroke="black" points="198.6,-122 195.6,-126 174.6,-126 171.6,-122 137.4,-122 137.4,-86 198.6,-86 198.6,-122"/>
<text text-anchor="middle" x="168" y="-99.8" font-family="Times,serif" font-size="14.00">IonTitle</text>
</g>
<!-- IonTitle&#45;&gt;EditAccountModule -->
<g id="edge8" class="edge">
<title>IonTitle&#45;&gt;EditAccountModule</title>
<path fill="none" stroke="black" d="M193.92,-122.03C193.92,-139.06 193.92,-162 193.92,-162 193.92,-162 325.76,-162 325.76,-162"/>
<polygon fill="black" stroke="black" points="325.76,-165.5 335.76,-162 325.76,-158.5 325.76,-165.5"/>
</g>
<!-- IonToolbar -->
<g id="node9" class="node">
<title>IonToolbar</title>
<polygon fill="#8dd3c7" stroke="black" points="119.48,-122 116.48,-126 95.48,-126 92.48,-122 40.52,-122 40.52,-86 119.48,-86 119.48,-122"/>
<text text-anchor="middle" x="80" y="-99.8" font-family="Times,serif" font-size="14.00">IonToolbar</text>
</g>
<!-- IonToolbar&#45;&gt;EditAccountModule -->
<g id="edge9" class="edge">
<title>IonToolbar&#45;&gt;EditAccountModule</title>
<path fill="none" stroke="black" d="M112.86,-122.22C112.86,-140.83 112.86,-167 112.86,-167 112.86,-167 325.62,-167 325.62,-167"/>
<polygon fill="black" stroke="black" points="325.62,-170.5 335.62,-167 325.62,-163.5 325.62,-170.5"/>
</g>
<!-- IonButton  -->
<g id="node11" class="node">
<title>IonButton </title>
<polygon fill="#fb8072" stroke="black" points="826.28,-252 749.72,-252 749.72,-216 826.28,-216 826.28,-252"/>
<text text-anchor="middle" x="788" y="-229.8" font-family="Times,serif" font-size="14.00">IonButton </text>
</g>
<!-- EditAccountModule&#45;&gt;IonButton  -->
<g id="edge10" class="edge">
<title>EditAccountModule&#45;&gt;IonButton </title>
<path fill="none" stroke="black" stroke-dasharray="5,2" d="M466.26,-172C574.8,-172 780.62,-172 780.62,-172 780.62,-172 780.62,-205.73 780.62,-205.73"/>
<polygon fill="black" stroke="black" points="777.13,-205.73 780.62,-215.73 784.13,-205.73 777.13,-205.73"/>
</g>
<!-- IonButtons  -->
<g id="node12" class="node">
<title>IonButtons </title>
<polygon fill="#fb8072" stroke="black" points="731.72,-252 650.28,-252 650.28,-216 731.72,-216 731.72,-252"/>
<text text-anchor="middle" x="691" y="-229.8" font-family="Times,serif" font-size="14.00">IonButtons </text>
</g>
<!-- EditAccountModule&#45;&gt;IonButtons  -->
<g id="edge11" class="edge">
<title>EditAccountModule&#45;&gt;IonButtons </title>
<path fill="none" stroke="black" stroke-dasharray="5,2" d="M466.18,-177C550.07,-177 685.12,-177 685.12,-177 685.12,-177 685.12,-205.96 685.12,-205.96"/>
<polygon fill="black" stroke="black" points="681.63,-205.96 685.12,-215.96 688.63,-205.96 681.63,-205.96"/>
</g>
<!-- IonContent  -->
<g id="node13" class="node">
<title>IonContent </title>
<polygon fill="#fb8072" stroke="black" points="632.49,-252 549.51,-252 549.51,-216 632.49,-216 632.49,-252"/>
<text text-anchor="middle" x="591" y="-229.8" font-family="Times,serif" font-size="14.00">IonContent </text>
</g>
<!-- EditAccountModule&#45;&gt;IonContent  -->
<g id="edge12" class="edge">
<title>EditAccountModule&#45;&gt;IonContent </title>
<path fill="none" stroke="black" stroke-dasharray="5,2" d="M466.53,-182C515.62,-182 574.33,-182 574.33,-182 574.33,-182 574.33,-205.81 574.33,-205.81"/>
<polygon fill="black" stroke="black" points="570.83,-205.81 574.33,-215.81 577.83,-205.81 570.83,-205.81"/>
</g>
<!-- IonHeader  -->
<g id="node14" class="node">
<title>IonHeader </title>
<polygon fill="#fb8072" stroke="black" points="531.07,-252 452.93,-252 452.93,-216 531.07,-216 531.07,-252"/>
<text text-anchor="middle" x="492" y="-229.8" font-family="Times,serif" font-size="14.00">IonHeader </text>
</g>
<!-- EditAccountModule&#45;&gt;IonHeader  -->
<g id="edge13" class="edge">
<title>EditAccountModule&#45;&gt;IonHeader </title>
<path fill="none" stroke="black" stroke-dasharray="5,2" d="M459.43,-187.11C459.43,-187.11 459.43,-205.99 459.43,-205.99"/>
<polygon fill="black" stroke="black" points="455.93,-205.99 459.43,-215.99 462.93,-205.99 455.93,-205.99"/>
</g>
<!-- IonInput  -->
<g id="node15" class="node">
<title>IonInput </title>
<polygon fill="#fb8072" stroke="black" points="434.71,-252 367.29,-252 367.29,-216 434.71,-216 434.71,-252"/>
<text text-anchor="middle" x="401" y="-229.8" font-family="Times,serif" font-size="14.00">IonInput </text>
</g>
<!-- EditAccountModule&#45;&gt;IonInput  -->
<g id="edge14" class="edge">
<title>EditAccountModule&#45;&gt;IonInput </title>
<path fill="none" stroke="black" stroke-dasharray="5,2" d="M401,-187.11C401,-187.11 401,-205.99 401,-205.99"/>
<polygon fill="black" stroke="black" points="397.5,-205.99 401,-215.99 404.5,-205.99 397.5,-205.99"/>
</g>
<!-- IonItem  -->
<g id="node16" class="node">
<title>IonItem </title>
<polygon fill="#fb8072" stroke="black" points="348.82,-252 285.18,-252 285.18,-216 348.82,-216 348.82,-252"/>
<text text-anchor="middle" x="317" y="-229.8" font-family="Times,serif" font-size="14.00">IonItem </text>
</g>
<!-- EditAccountModule&#45;&gt;IonItem  -->
<g id="edge15" class="edge">
<title>EditAccountModule&#45;&gt;IonItem </title>
<path fill="none" stroke="black" stroke-dasharray="5,2" d="M342.38,-187.11C342.38,-187.11 342.38,-205.99 342.38,-205.99"/>
<polygon fill="black" stroke="black" points="338.88,-205.99 342.38,-215.99 345.88,-205.99 338.88,-205.99"/>
</g>
<!-- IonList  -->
<g id="node17" class="node">
<title>IonList </title>
<polygon fill="#fb8072" stroke="black" points="266.94,-252 207.06,-252 207.06,-216 266.94,-216 266.94,-252"/>
<text text-anchor="middle" x="237" y="-229.8" font-family="Times,serif" font-size="14.00">IonList </text>
</g>
<!-- EditAccountModule&#45;&gt;IonList  -->
<g id="edge16" class="edge">
<title>EditAccountModule&#45;&gt;IonList </title>
<path fill="none" stroke="black" stroke-dasharray="5,2" d="M335.76,-182C288.74,-182 233.51,-182 233.51,-182 233.51,-182 233.51,-205.81 233.51,-205.81"/>
<polygon fill="black" stroke="black" points="230.01,-205.81 233.51,-215.81 237.01,-205.81 230.01,-205.81"/>
</g>
<!-- IonTitle  -->
<g id="node18" class="node">
<title>IonTitle </title>
<polygon fill="#fb8072" stroke="black" points="189.1,-252 124.9,-252 124.9,-216 189.1,-216 189.1,-252"/>
<text text-anchor="middle" x="157" y="-229.8" font-family="Times,serif" font-size="14.00">IonTitle </text>
</g>
<!-- EditAccountModule&#45;&gt;IonTitle  -->
<g id="edge17" class="edge">
<title>EditAccountModule&#45;&gt;IonTitle </title>
<path fill="none" stroke="black" stroke-dasharray="5,2" d="M335.75,-177C265.41,-177 163.38,-177 163.38,-177 163.38,-177 163.38,-205.96 163.38,-205.96"/>
<polygon fill="black" stroke="black" points="159.88,-205.96 163.38,-215.96 166.88,-205.96 159.88,-205.96"/>
</g>
<!-- IonToolbar  -->
<g id="node19" class="node">
<title>IonToolbar </title>
<polygon fill="#fb8072" stroke="black" points="106.48,-252 23.52,-252 23.52,-216 106.48,-216 106.48,-252"/>
<text text-anchor="middle" x="65" y="-229.8" font-family="Times,serif" font-size="14.00">IonToolbar </text>
</g>
<!-- EditAccountModule&#45;&gt;IonToolbar  -->
<g id="edge18" class="edge">
<title>EditAccountModule&#45;&gt;IonToolbar </title>
<path fill="none" stroke="black" stroke-dasharray="5,2" d="M335.49,-172C239.88,-172 73.38,-172 73.38,-172 73.38,-172 73.38,-205.73 73.38,-205.73"/>
<polygon fill="black" stroke="black" points="69.88,-205.73 73.38,-215.73 76.88,-205.73 69.88,-205.73"/>
</g>
</g>
</svg>
