<?xml version="1.0" encoding="UTF-8" standalone="no"?>
<!DOCTYPE svg PUBLIC "-//W3C//DTD SVG 1.1//EN"
 "http://www.w3.org/Graphics/SVG/1.1/DTD/svg11.dtd">
<!-- Generated by graphviz version 2.47.0 (20210316.0004)
 -->
<!-- Title: dependencies Pages: 1 -->
<svg width="1482pt" height="284pt"
 viewBox="0.00 0.00 1482.00 284.00" xmlns="http://www.w3.org/2000/svg" xmlns:xlink="http://www.w3.org/1999/xlink">
<g id="graph0" class="graph" transform="scale(1 1) rotate(0) translate(4 280)">
<title>dependencies</title>
<polygon fill="white" stroke="transparent" points="-4,4 -4,-280 1478,-280 1478,4 -4,4"/>
<text text-anchor="start" x="716.01" y="-42.4" font-family="Times-12" font-weight="bold" font-size="14.00">Legend</text>
<polygon fill="#ffffb3" stroke="transparent" points="503,-10 503,-30 523,-30 523,-10 503,-10"/>
<text text-anchor="start" x="526.63" y="-15.4" font-family="Times-12" font-size="14.00"> &#160;Declarations</text>
<polygon fill="#8dd3c7" stroke="transparent" points="616,-10 616,-30 636,-30 636,-10 616,-10"/>
<text text-anchor="start" x="639.73" y="-15.4" font-family="Times-12" font-size="14.00"> &#160;Module</text>
<polygon fill="#80b1d3" stroke="transparent" points="702,-10 702,-30 722,-30 722,-10 702,-10"/>
<text text-anchor="start" x="725.78" y="-15.4" font-family="Times-12" font-size="14.00"> &#160;Bootstrap</text>
<polygon fill="#fdb462" stroke="transparent" points="799,-10 799,-30 819,-30 819,-10 799,-10"/>
<text text-anchor="start" x="822.67" y="-15.4" font-family="Times-12" font-size="14.00"> &#160;Providers</text>
<polygon fill="#fb8072" stroke="transparent" points="895,-10 895,-30 915,-30 915,-10 895,-10"/>
<text text-anchor="start" x="918.73" y="-15.4" font-family="Times-12" font-size="14.00"> &#160;Exports</text>
<g id="clust1" class="cluster">
<title>cluster_CreateAccountModule</title>
<polygon fill="none" stroke="black" stroke-dasharray="1,5" points="8,-70 8,-268 1466,-268 1466,-70 8,-70"/>
</g>
<g id="clust3" class="cluster">
<title>cluster_CreateAccountModule_imports</title>
<polygon fill="none" stroke="black" points="46,-78 46,-130 1439,-130 1439,-78 46,-78"/>
</g>
<g id="clust4" class="cluster">
<title>cluster_CreateAccountModule_exports</title>
<polygon fill="none" stroke="black" points="16,-208 16,-260 1458,-260 1458,-208 16,-208"/>
</g>
<!-- IonButton -->
<g id="node1" class="node">
<title>IonButton</title>
<polygon fill="#8dd3c7" stroke="black" points="1431.28,-122 1428.28,-126 1407.28,-126 1404.28,-122 1358.72,-122 1358.72,-86 1431.28,-86 1431.28,-122"/>
<text text-anchor="middle" x="1395" y="-99.8" font-family="Times,serif" font-size="14.00">IonButton</text>
</g>
<!-- CreateAccountModule -->
<g id="node15" class="node">
<title>CreateAccountModule</title>
<polygon fill="#8dd3c7" stroke="black" points="863.51,-187 860.51,-191 839.51,-191 836.51,-187 720.49,-187 720.49,-151 863.51,-151 863.51,-187"/>
<text text-anchor="middle" x="792" y="-164.8" font-family="Times,serif" font-size="14.00">CreateAccountModule</text>
</g>
<!-- IonButton&#45;&gt;CreateAccountModule -->
<g id="edge1" class="edge">
<title>IonButton&#45;&gt;CreateAccountModule</title>
<path fill="none" stroke="black" d="M1366.24,-122.17C1366.24,-141.09 1366.24,-168 1366.24,-168 1366.24,-168 873.57,-168 873.57,-168"/>
<polygon fill="black" stroke="black" points="873.57,-164.5 863.57,-168 873.57,-171.5 873.57,-164.5"/>
</g>
<!-- IonButtons -->
<g id="node2" class="node">
<title>IonButtons</title>
<polygon fill="#8dd3c7" stroke="black" points="1340.22,-122 1337.22,-126 1316.22,-126 1313.22,-122 1261.78,-122 1261.78,-86 1340.22,-86 1340.22,-122"/>
<text text-anchor="middle" x="1301" y="-99.8" font-family="Times,serif" font-size="14.00">IonButtons</text>
</g>
<!-- IonButtons&#45;&gt;CreateAccountModule -->
<g id="edge2" class="edge">
<title>IonButtons&#45;&gt;CreateAccountModule</title>
<path fill="none" stroke="black" d="M1268.01,-122.3C1268.01,-140.27 1268.01,-165 1268.01,-165 1268.01,-165 873.52,-165 873.52,-165"/>
<polygon fill="black" stroke="black" points="873.52,-161.5 863.52,-165 873.52,-168.5 873.52,-161.5"/>
</g>
<!-- IonContent -->
<g id="node3" class="node">
<title>IonContent</title>
<polygon fill="#8dd3c7" stroke="black" points="1243.49,-122 1240.49,-126 1219.49,-126 1216.49,-122 1164.51,-122 1164.51,-86 1243.49,-86 1243.49,-122"/>
<text text-anchor="middle" x="1204" y="-99.8" font-family="Times,serif" font-size="14.00">IonContent</text>
</g>
<!-- IonContent&#45;&gt;CreateAccountModule -->
<g id="edge3" class="edge">
<title>IonContent&#45;&gt;CreateAccountModule</title>
<path fill="none" stroke="black" d="M1169.13,-122.02C1169.13,-139.37 1169.13,-163 1169.13,-163 1169.13,-163 873.82,-163 873.82,-163"/>
<polygon fill="black" stroke="black" points="873.82,-159.5 863.82,-163 873.82,-166.5 873.82,-159.5"/>
</g>
<!-- IonHeader -->
<g id="node4" class="node">
<title>IonHeader</title>
<polygon fill="#8dd3c7" stroke="black" points="1146.57,-122 1143.57,-126 1122.57,-126 1119.57,-122 1071.43,-122 1071.43,-86 1146.57,-86 1146.57,-122"/>
<text text-anchor="middle" x="1109" y="-99.8" font-family="Times,serif" font-size="14.00">IonHeader</text>
</g>
<!-- IonHeader&#45;&gt;CreateAccountModule -->
<g id="edge4" class="edge">
<title>IonHeader&#45;&gt;CreateAccountModule</title>
<path fill="none" stroke="black" d="M1123.26,-122.03C1123.26,-138.4 1123.26,-160 1123.26,-160 1123.26,-160 873.88,-160 873.88,-160"/>
<polygon fill="black" stroke="black" points="873.88,-156.5 863.88,-160 873.88,-163.5 873.88,-156.5"/>
</g>
<!-- IonInput -->
<g id="node5" class="node">
<title>IonInput</title>
<polygon fill="#8dd3c7" stroke="black" points="1053.21,-122 1050.21,-126 1029.21,-126 1026.21,-122 988.79,-122 988.79,-86 1053.21,-86 1053.21,-122"/>
<text text-anchor="middle" x="1021" y="-99.8" font-family="Times,serif" font-size="14.00">IonInput</text>
</g>
<!-- IonInput&#45;&gt;CreateAccountModule -->
<g id="edge5" class="edge">
<title>IonInput&#45;&gt;CreateAccountModule</title>
<path fill="none" stroke="black" d="M1032.45,-122.24C1032.45,-137.57 1032.45,-157 1032.45,-157 1032.45,-157 873.82,-157 873.82,-157"/>
<polygon fill="black" stroke="black" points="873.82,-153.5 863.82,-157 873.82,-160.5 873.82,-153.5"/>
</g>
<!-- IonItem -->
<g id="node6" class="node">
<title>IonItem</title>
<polygon fill="#8dd3c7" stroke="black" points="971.32,-122 968.32,-126 947.32,-126 944.32,-122 910.68,-122 910.68,-86 971.32,-86 971.32,-122"/>
<text text-anchor="middle" x="941" y="-99.8" font-family="Times,serif" font-size="14.00">IonItem</text>
</g>
<!-- IonItem&#45;&gt;CreateAccountModule -->
<g id="edge6" class="edge">
<title>IonItem&#45;&gt;CreateAccountModule</title>
<path fill="none" stroke="black" d="M930.95,-122.05C930.95,-136.37 930.95,-154 930.95,-154 930.95,-154 873.51,-154 873.51,-154"/>
<polygon fill="black" stroke="black" points="873.51,-150.5 863.51,-154 873.51,-157.5 873.51,-150.5"/>
</g>
<!-- IonLabel -->
<g id="node7" class="node">
<title>IonLabel</title>
<polygon fill="#8dd3c7" stroke="black" points="893.03,-122 890.03,-126 869.03,-126 866.03,-122 826.97,-122 826.97,-86 893.03,-86 893.03,-122"/>
<text text-anchor="middle" x="860" y="-99.8" font-family="Times,serif" font-size="14.00">IonLabel</text>
</g>
<!-- IonLabel&#45;&gt;CreateAccountModule -->
<g id="edge7" class="edge">
<title>IonLabel&#45;&gt;CreateAccountModule</title>
<path fill="none" stroke="black" d="M845.24,-122.11C845.24,-122.11 845.24,-140.99 845.24,-140.99"/>
<polygon fill="black" stroke="black" points="841.74,-140.99 845.24,-150.99 848.74,-140.99 841.74,-140.99"/>
</g>
<!-- IonList -->
<g id="node8" class="node">
<title>IonList</title>
<polygon fill="#8dd3c7" stroke="black" points="809.44,-122 806.44,-126 785.44,-126 782.44,-122 752.56,-122 752.56,-86 809.44,-86 809.44,-122"/>
<text text-anchor="middle" x="781" y="-99.8" font-family="Times,serif" font-size="14.00">IonList</text>
</g>
<!-- IonList&#45;&gt;CreateAccountModule -->
<g id="edge8" class="edge">
<title>IonList&#45;&gt;CreateAccountModule</title>
<path fill="none" stroke="black" d="M781,-122.11C781,-122.11 781,-140.99 781,-140.99"/>
<polygon fill="black" stroke="black" points="777.5,-140.99 781,-150.99 784.5,-140.99 777.5,-140.99"/>
</g>
<!-- IonNote -->
<g id="node9" class="node">
<title>IonNote</title>
<polygon fill="#8dd3c7" stroke="black" points="734.87,-122 731.87,-126 710.87,-126 707.87,-122 673.13,-122 673.13,-86 734.87,-86 734.87,-122"/>
<text text-anchor="middle" x="704" y="-99.8" font-family="Times,serif" font-size="14.00">IonNote</text>
</g>
<!-- IonNote&#45;&gt;CreateAccountModule -->
<g id="edge9" class="edge">
<title>IonNote&#45;&gt;CreateAccountModule</title>
<path fill="none" stroke="black" d="M727.59,-122.11C727.59,-122.11 727.59,-140.99 727.59,-140.99"/>
<polygon fill="black" stroke="black" points="724.09,-140.99 727.59,-150.99 731.09,-140.99 724.09,-140.99"/>
</g>
<!-- IonTitle -->
<g id="node10" class="node">
<title>IonTitle</title>
<polygon fill="#8dd3c7" stroke="black" points="655.6,-122 652.6,-126 631.6,-126 628.6,-122 594.4,-122 594.4,-86 655.6,-86 655.6,-122"/>
<text text-anchor="middle" x="625" y="-99.8" font-family="Times,serif" font-size="14.00">IonTitle</text>
</g>
<!-- IonTitle&#45;&gt;CreateAccountModule -->
<g id="edge10" class="edge">
<title>IonTitle&#45;&gt;CreateAccountModule</title>
<path fill="none" stroke="black" d="M648.42,-122.12C648.42,-136.78 648.42,-155 648.42,-155 648.42,-155 710.21,-155 710.21,-155"/>
<polygon fill="black" stroke="black" points="710.21,-158.5 720.21,-155 710.21,-151.5 710.21,-158.5"/>
</g>
<!-- IonToggle -->
<g id="node11" class="node">
<title>IonToggle</title>
<polygon fill="#8dd3c7" stroke="black" points="576.32,-122 573.32,-126 552.32,-126 549.32,-122 501.68,-122 501.68,-86 576.32,-86 576.32,-122"/>
<text text-anchor="middle" x="539" y="-99.8" font-family="Times,serif" font-size="14.00">IonToggle</text>
</g>
<!-- IonToggle&#45;&gt;CreateAccountModule -->
<g id="edge11" class="edge">
<title>IonToggle&#45;&gt;CreateAccountModule</title>
<path fill="none" stroke="black" d="M567.53,-122.28C567.53,-137.95 567.53,-158 567.53,-158 567.53,-158 710.36,-158 710.36,-158"/>
<polygon fill="black" stroke="black" points="710.36,-161.5 720.36,-158 710.36,-154.5 710.36,-161.5"/>
</g>
<!-- IonToolbar -->
<g id="node12" class="node">
<title>IonToolbar</title>
<polygon fill="#8dd3c7" stroke="black" points="483.48,-122 480.48,-126 459.48,-126 456.48,-122 404.52,-122 404.52,-86 483.48,-86 483.48,-122"/>
<text text-anchor="middle" x="444" y="-99.8" font-family="Times,serif" font-size="14.00">IonToolbar</text>
</g>
<!-- IonToolbar&#45;&gt;CreateAccountModule -->
<g id="edge12" class="edge">
<title>IonToolbar&#45;&gt;CreateAccountModule</title>
<path fill="none" stroke="black" d="M472.17,-122.04C472.17,-138.73 472.17,-161 472.17,-161 472.17,-161 710.22,-161 710.22,-161"/>
<polygon fill="black" stroke="black" points="710.22,-164.5 720.22,-161 710.22,-157.5 710.22,-164.5"/>
</g>
<!-- PasteButtonComponent -->
<g id="node13" class="node">
<title>PasteButtonComponent</title>
<polygon fill="#8dd3c7" stroke="black" points="386.5,-122 383.5,-126 362.5,-126 359.5,-122 237.5,-122 237.5,-86 386.5,-86 386.5,-122"/>
<text text-anchor="middle" x="312" y="-99.8" font-family="Times,serif" font-size="14.00">PasteButtonComponent</text>
</g>
<!-- PasteButtonComponent&#45;&gt;CreateAccountModule -->
<g id="edge13" class="edge">
<title>PasteButtonComponent&#45;&gt;CreateAccountModule</title>
<path fill="none" stroke="black" d="M372,-122.3C372,-140.27 372,-165 372,-165 372,-165 710.28,-165 710.28,-165"/>
<polygon fill="black" stroke="black" points="710.28,-168.5 720.28,-165 710.28,-161.5 710.28,-168.5"/>
</g>
<!-- TokenUriInputComponent -->
<g id="node14" class="node">
<title>TokenUriInputComponent</title>
<polygon fill="#8dd3c7" stroke="black" points="219.81,-122 216.81,-126 195.81,-126 192.81,-122 54.19,-122 54.19,-86 219.81,-86 219.81,-122"/>
<text text-anchor="middle" x="137" y="-99.8" font-family="Times,serif" font-size="14.00">TokenUriInputComponent</text>
</g>
<!-- TokenUriInputComponent&#45;&gt;CreateAccountModule -->
<g id="edge14" class="edge">
<title>TokenUriInputComponent&#45;&gt;CreateAccountModule</title>
<path fill="none" stroke="black" d="M215.2,-122.17C215.2,-141.09 215.2,-168 215.2,-168 215.2,-168 710.4,-168 710.4,-168"/>
<polygon fill="black" stroke="black" points="710.4,-171.5 720.4,-168 710.4,-164.5 710.4,-171.5"/>
</g>
<!-- IonButton  -->
<g id="node16" class="node">
<title>IonButton </title>
<polygon fill="#fb8072" stroke="black" points="1450.28,-252 1373.72,-252 1373.72,-216 1450.28,-216 1450.28,-252"/>
<text text-anchor="middle" x="1412" y="-229.8" font-family="Times,serif" font-size="14.00">IonButton </text>
</g>
<!-- CreateAccountModule&#45;&gt;IonButton  -->
<g id="edge15" class="edge">
<title>CreateAccountModule&#45;&gt;IonButton </title>
<path fill="none" stroke="black" stroke-dasharray="5,2" d="M863.54,-171C1024.79,-171 1402.62,-171 1402.62,-171 1402.62,-171 1402.62,-205.78 1402.62,-205.78"/>
<polygon fill="black" stroke="black" points="1399.13,-205.78 1402.62,-215.78 1406.13,-205.78 1399.13,-205.78"/>
</g>
<!-- IonButtons  -->
<g id="node17" class="node">
<title>IonButtons </title>
<polygon fill="#fb8072" stroke="black" points="1355.72,-252 1274.28,-252 1274.28,-216 1355.72,-216 1355.72,-252"/>
<text text-anchor="middle" x="1315" y="-229.8" font-family="Times,serif" font-size="14.00">IonButtons </text>
</g>
<!-- CreateAccountModule&#45;&gt;IonButtons  -->
<g id="edge16" class="edge">
<title>CreateAccountModule&#45;&gt;IonButtons </title>
<path fill="none" stroke="black" stroke-dasharray="5,2" d="M863.63,-174C1005.17,-174 1307.12,-174 1307.12,-174 1307.12,-174 1307.12,-206 1307.12,-206"/>
<polygon fill="black" stroke="black" points="1303.63,-206 1307.12,-216 1310.63,-206 1303.63,-206"/>
</g>
<!-- IonContent  -->
<g id="node18" class="node">
<title>IonContent </title>
<polygon fill="#fb8072" stroke="black" points="1256.49,-252 1173.51,-252 1173.51,-216 1256.49,-216 1256.49,-252"/>
<text text-anchor="middle" x="1215" y="-229.8" font-family="Times,serif" font-size="14.00">IonContent </text>
</g>
<!-- CreateAccountModule&#45;&gt;IonContent  -->
<g id="edge17" class="edge">
<title>CreateAccountModule&#45;&gt;IonContent </title>
<path fill="none" stroke="black" stroke-dasharray="5,2" d="M863.62,-176C982.74,-176 1208.62,-176 1208.62,-176 1208.62,-176 1208.62,-205.97 1208.62,-205.97"/>
<polygon fill="black" stroke="black" points="1205.13,-205.97 1208.62,-215.97 1212.13,-205.97 1205.13,-205.97"/>
</g>
<!-- IonHeader  -->
<g id="node19" class="node">
<title>IonHeader </title>
<polygon fill="#fb8072" stroke="black" points="1155.07,-252 1076.93,-252 1076.93,-216 1155.07,-216 1155.07,-252"/>
<text text-anchor="middle" x="1116" y="-229.8" font-family="Times,serif" font-size="14.00">IonHeader </text>
</g>
<!-- CreateAccountModule&#45;&gt;IonHeader  -->
<g id="edge18" class="edge">
<title>CreateAccountModule&#45;&gt;IonHeader </title>
<path fill="none" stroke="black" stroke-dasharray="5,2" d="M863.82,-179C954.83,-179 1099.99,-179 1099.99,-179 1099.99,-179 1099.99,-205.99 1099.99,-205.99"/>
<polygon fill="black" stroke="black" points="1096.49,-205.99 1099.99,-215.99 1103.49,-205.99 1096.49,-205.99"/>
</g>
<!-- IonInput  -->
<g id="node20" class="node">
<title>IonInput </title>
<polygon fill="#fb8072" stroke="black" points="1058.71,-252 991.29,-252 991.29,-216 1058.71,-216 1058.71,-252"/>
<text text-anchor="middle" x="1025" y="-229.8" font-family="Times,serif" font-size="14.00">IonInput </text>
</g>
<!-- CreateAccountModule&#45;&gt;IonInput  -->
<g id="edge19" class="edge">
<title>CreateAccountModule&#45;&gt;IonInput </title>
<path fill="none" stroke="black" stroke-dasharray="5,2" d="M863.67,-182C927.81,-182 1011.8,-182 1011.8,-182 1011.8,-182 1011.8,-205.81 1011.8,-205.81"/>
<polygon fill="black" stroke="black" points="1008.3,-205.81 1011.8,-215.81 1015.3,-205.81 1008.3,-205.81"/>
</g>
<!-- IonItem  -->
<g id="node21" class="node">
<title>IonItem </title>
<polygon fill="#fb8072" stroke="black" points="972.82,-252 909.18,-252 909.18,-216 972.82,-216 972.82,-252"/>
<text text-anchor="middle" x="941" y="-229.8" font-family="Times,serif" font-size="14.00">IonItem </text>
</g>
<!-- CreateAccountModule&#45;&gt;IonItem  -->
<g id="edge20" class="edge">
<title>CreateAccountModule&#45;&gt;IonItem </title>
<path fill="none" stroke="black" stroke-dasharray="5,2" d="M863.62,-185C905.83,-185 951.05,-185 951.05,-185 951.05,-185 951.05,-205.75 951.05,-205.75"/>
<polygon fill="black" stroke="black" points="947.55,-205.75 951.05,-215.75 954.55,-205.75 947.55,-205.75"/>
</g>
<!-- IonLabel  -->
<g id="node22" class="node">
<title>IonLabel </title>
<polygon fill="#fb8072" stroke="black" points="891.03,-252 820.97,-252 820.97,-216 891.03,-216 891.03,-252"/>
<text text-anchor="middle" x="856" y="-229.8" font-family="Times,serif" font-size="14.00">IonLabel </text>
</g>
<!-- CreateAccountModule&#45;&gt;IonLabel  -->
<g id="edge21" class="edge">
<title>CreateAccountModule&#45;&gt;IonLabel </title>
<path fill="none" stroke="black" stroke-dasharray="5,2" d="M842.37,-187.11C842.37,-187.11 842.37,-205.99 842.37,-205.99"/>
<polygon fill="black" stroke="black" points="838.87,-205.99 842.37,-215.99 845.87,-205.99 838.87,-205.99"/>
</g>
<!-- IonList  -->
<g id="node23" class="node">
<title>IonList </title>
<polygon fill="#fb8072" stroke="black" points="802.94,-252 743.06,-252 743.06,-216 802.94,-216 802.94,-252"/>
<text text-anchor="middle" x="773" y="-229.8" font-family="Times,serif" font-size="14.00">IonList </text>
</g>
<!-- CreateAccountModule&#45;&gt;IonList  -->
<g id="edge22" class="edge">
<title>CreateAccountModule&#45;&gt;IonList </title>
<path fill="none" stroke="black" stroke-dasharray="5,2" d="M773,-187.11C773,-187.11 773,-205.99 773,-205.99"/>
<polygon fill="black" stroke="black" points="769.5,-205.99 773,-215.99 776.5,-205.99 769.5,-205.99"/>
</g>
<!-- IonNote  -->
<g id="node24" class="node">
<title>IonNote </title>
<polygon fill="#fb8072" stroke="black" points="724.87,-252 659.13,-252 659.13,-216 724.87,-216 724.87,-252"/>
<text text-anchor="middle" x="692" y="-229.8" font-family="Times,serif" font-size="14.00">IonNote </text>
</g>
<!-- CreateAccountModule&#45;&gt;IonNote  -->
<g id="edge23" class="edge">
<title>CreateAccountModule&#45;&gt;IonNote </title>
<path fill="none" stroke="black" stroke-dasharray="5,2" d="M733.86,-187.11C733.86,-206.34 733.86,-234 733.86,-234 733.86,-234 732.97,-234 732.97,-234"/>
<polygon fill="black" stroke="black" points="734.98,-230.5 724.98,-234 734.98,-237.5 734.98,-230.5"/>
</g>
<!-- IonTitle  -->
<g id="node25" class="node">
<title>IonTitle </title>
<polygon fill="#fb8072" stroke="black" points="641.1,-252 576.9,-252 576.9,-216 641.1,-216 641.1,-252"/>
<text text-anchor="middle" x="609" y="-229.8" font-family="Times,serif" font-size="14.00">IonTitle </text>
</g>
<!-- CreateAccountModule&#45;&gt;IonTitle  -->
<g id="edge24" class="edge">
<title>CreateAccountModule&#45;&gt;IonTitle </title>
<path fill="none" stroke="black" stroke-dasharray="5,2" d="M720.42,-184C672.4,-184 617.88,-184 617.88,-184 617.88,-184 617.88,-205.95 617.88,-205.95"/>
<polygon fill="black" stroke="black" points="614.38,-205.95 617.88,-215.95 621.38,-205.95 614.38,-205.95"/>
</g>
<!-- IonToggle  -->
<g id="node26" class="node">
<title>IonToggle </title>
<polygon fill="#fb8072" stroke="black" points="558.82,-252 481.18,-252 481.18,-216 558.82,-216 558.82,-252"/>
<text text-anchor="middle" x="520" y="-229.8" font-family="Times,serif" font-size="14.00">IonToggle </text>
</g>
<!-- CreateAccountModule&#45;&gt;IonToggle  -->
<g id="edge25" class="edge">
<title>CreateAccountModule&#45;&gt;IonToggle </title>
<path fill="none" stroke="black" stroke-dasharray="5,2" d="M720.16,-181C642.71,-181 530.38,-181 530.38,-181 530.38,-181 530.38,-205.76 530.38,-205.76"/>
<polygon fill="black" stroke="black" points="526.88,-205.76 530.38,-215.76 533.88,-205.76 526.88,-205.76"/>
</g>
<!-- IonToolbar  -->
<g id="node27" class="node">
<title>IonToolbar </title>
<polygon fill="#fb8072" stroke="black" points="463.48,-252 380.52,-252 380.52,-216 463.48,-216 463.48,-252"/>
<text text-anchor="middle" x="422" y="-229.8" font-family="Times,serif" font-size="14.00">IonToolbar </text>
</g>
<!-- CreateAccountModule&#45;&gt;IonToolbar  -->
<g id="edge26" class="edge">
<title>CreateAccountModule&#45;&gt;IonToolbar </title>
<path fill="none" stroke="black" stroke-dasharray="5,2" d="M720.39,-178C615.88,-178 433.88,-178 433.88,-178 433.88,-178 433.88,-205.97 433.88,-205.97"/>
<polygon fill="black" stroke="black" points="430.38,-205.97 433.88,-215.97 437.38,-205.97 430.38,-205.97"/>
</g>
<!-- PasteButtonComponent  -->
<g id="node28" class="node">
<title>PasteButtonComponent </title>
<polygon fill="#fb8072" stroke="black" points="363.5,-252 210.5,-252 210.5,-216 363.5,-216 363.5,-252"/>
<text text-anchor="middle" x="287" y="-229.8" font-family="Times,serif" font-size="14.00">PasteButtonComponent </text>
</g>
<!-- CreateAccountModule&#45;&gt;PasteButtonComponent  -->
<g id="edge27" class="edge">
<title>CreateAccountModule&#45;&gt;PasteButtonComponent </title>
<path fill="none" stroke="black" stroke-dasharray="5,2" d="M720.25,-174C583.8,-174 300.38,-174 300.38,-174 300.38,-174 300.38,-206 300.38,-206"/>
<polygon fill="black" stroke="black" points="296.88,-206 300.38,-216 303.88,-206 296.88,-206"/>
</g>
<!-- TokenUriInputComponent  -->
<g id="node29" class="node">
<title>TokenUriInputComponent </title>
<polygon fill="#fb8072" stroke="black" points="192.31,-252 23.69,-252 23.69,-216 192.31,-216 192.31,-252"/>
<text text-anchor="middle" x="108" y="-229.8" font-family="Times,serif" font-size="14.00">TokenUriInputComponent </text>
</g>
<!-- CreateAccountModule&#45;&gt;TokenUriInputComponent  -->
<g id="edge28" class="edge">
<title>CreateAccountModule&#45;&gt;TokenUriInputComponent </title>
<path fill="none" stroke="black" stroke-dasharray="5,2" d="M720.45,-171C547.96,-171 123.38,-171 123.38,-171 123.38,-171 123.38,-205.78 123.38,-205.78"/>
<polygon fill="black" stroke="black" points="119.88,-205.78 123.38,-215.78 126.88,-205.78 119.88,-205.78"/>
</g>
</g>
</svg>
