<?xml version="1.0" encoding="UTF-8" standalone="no"?>
<!DOCTYPE svg PUBLIC "-//W3C//DTD SVG 1.1//EN"
 "http://www.w3.org/Graphics/SVG/1.1/DTD/svg11.dtd">
<!-- Generated by graphviz version 2.47.0 (20210316.0004)
 -->
<!-- Title: dependencies Pages: 1 -->
<svg width="552pt" height="284pt"
 viewBox="0.00 0.00 552.00 284.00" xmlns="http://www.w3.org/2000/svg" xmlns:xlink="http://www.w3.org/1999/xlink">
<g id="graph0" class="graph" transform="scale(1 1) rotate(0) translate(4 280)">
<title>dependencies</title>
<polygon fill="white" stroke="transparent" points="-4,4 -4,-280 548,-280 548,4 -4,4"/>
<text text-anchor="start" x="251.01" y="-42.4" font-family="Times-12" font-weight="bold" font-size="14.00">Legend</text>
<polygon fill="#ffffb3" stroke="transparent" points="38,-10 38,-30 58,-30 58,-10 38,-10"/>
<text text-anchor="start" x="61.63" y="-15.4" font-family="Times-12" font-size="14.00"> &#160;Declarations</text>
<polygon fill="#8dd3c7" stroke="transparent" points="151,-10 151,-30 171,-30 171,-10 151,-10"/>
<text text-anchor="start" x="174.73" y="-15.4" font-family="Times-12" font-size="14.00"> &#160;Module</text>
<polygon fill="#80b1d3" stroke="transparent" points="237,-10 237,-30 257,-30 257,-10 237,-10"/>
<text text-anchor="start" x="260.78" y="-15.4" font-family="Times-12" font-size="14.00"> &#160;Bootstrap</text>
<polygon fill="#fdb462" stroke="transparent" points="334,-10 334,-30 354,-30 354,-10 334,-10"/>
<text text-anchor="start" x="357.67" y="-15.4" font-family="Times-12" font-size="14.00"> &#160;Providers</text>
<polygon fill="#fb8072" stroke="transparent" points="430,-10 430,-30 450,-30 450,-10 430,-10"/>
<text text-anchor="start" x="453.73" y="-15.4" font-family="Times-12" font-size="14.00"> &#160;Exports</text>
<g id="clust1" class="cluster">
<title>cluster_TokenUriInputModule</title>
<polygon fill="none" stroke="black" stroke-dasharray="1,5" points="8,-70 8,-268 536,-268 536,-70 8,-70"/>
</g>
<g id="clust4" class="cluster">
<title>cluster_TokenUriInputModule_exports</title>
<polygon fill="none" stroke="black" points="16,-208 16,-260 528,-260 528,-208 16,-208"/>
</g>
<g id="clust3" class="cluster">
<title>cluster_TokenUriInputModule_imports</title>
<polygon fill="none" stroke="black" points="30,-78 30,-130 518,-130 518,-78 30,-78"/>
</g>
<!-- IonInput -->
<g id="node1" class="node">
<title>IonInput</title>
<polygon fill="#8dd3c7" stroke="black" points="510.21,-122 507.21,-126 486.21,-126 483.21,-122 445.79,-122 445.79,-86 510.21,-86 510.21,-122"/>
<text text-anchor="middle" x="478" y="-99.8" font-family="Times,serif" font-size="14.00">IonInput</text>
</g>
<!-- TokenUriInputModule -->
<g id="node7" class="node">
<title>TokenUriInputModule</title>
<polygon fill="#8dd3c7" stroke="black" points="314.53,-187 311.53,-191 290.53,-191 287.53,-187 171.47,-187 171.47,-151 314.53,-151 314.53,-187"/>
<text text-anchor="middle" x="243" y="-164.8" font-family="Times,serif" font-size="14.00">TokenUriInputModule</text>
</g>
<!-- IonInput&#45;&gt;TokenUriInputModule -->
<g id="edge1" class="edge">
<title>IonInput&#45;&gt;TokenUriInputModule</title>
<path fill="none" stroke="black" d="M490.79,-122.27C490.79,-140.56 490.79,-166 490.79,-166 490.79,-166 324.67,-166 324.67,-166"/>
<polygon fill="black" stroke="black" points="324.67,-162.5 314.67,-166 324.67,-169.5 324.67,-162.5"/>
</g>
<!-- IonItem -->
<g id="node2" class="node">
<title>IonItem</title>
<polygon fill="#8dd3c7" stroke="black" points="428.32,-122 425.32,-126 404.32,-126 401.32,-122 367.68,-122 367.68,-86 428.32,-86 428.32,-122"/>
<text text-anchor="middle" x="398" y="-99.8" font-family="Times,serif" font-size="14.00">IonItem</text>
</g>
<!-- IonItem&#45;&gt;TokenUriInputModule -->
<g id="edge2" class="edge">
<title>IonItem&#45;&gt;TokenUriInputModule</title>
<path fill="none" stroke="black" d="M408.8,-122.01C408.8,-138.05 408.8,-159 408.8,-159 408.8,-159 324.76,-159 324.76,-159"/>
<polygon fill="black" stroke="black" points="324.76,-155.5 314.76,-159 324.76,-162.5 324.76,-155.5"/>
</g>
<!-- IonLabel -->
<g id="node3" class="node">
<title>IonLabel</title>
<polygon fill="#8dd3c7" stroke="black" points="350.03,-122 347.03,-126 326.03,-126 323.03,-122 283.97,-122 283.97,-86 350.03,-86 350.03,-122"/>
<text text-anchor="middle" x="317" y="-99.8" font-family="Times,serif" font-size="14.00">IonLabel</text>
</g>
<!-- IonLabel&#45;&gt;TokenUriInputModule -->
<g id="edge3" class="edge">
<title>IonLabel&#45;&gt;TokenUriInputModule</title>
<path fill="none" stroke="black" d="M299.25,-122.11C299.25,-122.11 299.25,-140.99 299.25,-140.99"/>
<polygon fill="black" stroke="black" points="295.75,-140.99 299.25,-150.99 302.75,-140.99 295.75,-140.99"/>
</g>
<!-- IonList -->
<g id="node4" class="node">
<title>IonList</title>
<polygon fill="#8dd3c7" stroke="black" points="266.44,-122 263.44,-126 242.44,-126 239.44,-122 209.56,-122 209.56,-86 266.44,-86 266.44,-122"/>
<text text-anchor="middle" x="238" y="-99.8" font-family="Times,serif" font-size="14.00">IonList</text>
</g>
<!-- IonList&#45;&gt;TokenUriInputModule -->
<g id="edge4" class="edge">
<title>IonList&#45;&gt;TokenUriInputModule</title>
<path fill="none" stroke="black" d="M238,-122.11C238,-122.11 238,-140.99 238,-140.99"/>
<polygon fill="black" stroke="black" points="234.5,-140.99 238,-150.99 241.5,-140.99 234.5,-140.99"/>
</g>
<!-- IonNote -->
<g id="node5" class="node">
<title>IonNote</title>
<polygon fill="#8dd3c7" stroke="black" points="191.87,-122 188.87,-126 167.87,-126 164.87,-122 130.13,-122 130.13,-86 191.87,-86 191.87,-122"/>
<text text-anchor="middle" x="161" y="-99.8" font-family="Times,serif" font-size="14.00">IonNote</text>
</g>
<!-- IonNote&#45;&gt;TokenUriInputModule -->
<g id="edge5" class="edge">
<title>IonNote&#45;&gt;TokenUriInputModule</title>
<path fill="none" stroke="black" d="M181.59,-122.11C181.59,-122.11 181.59,-140.99 181.59,-140.99"/>
<polygon fill="black" stroke="black" points="178.09,-140.99 181.59,-150.99 185.09,-140.99 178.09,-140.99"/>
</g>
<!-- IonToggle -->
<g id="node6" class="node">
<title>IonToggle</title>
<polygon fill="#8dd3c7" stroke="black" points="112.32,-122 109.32,-126 88.32,-126 85.32,-122 37.68,-122 37.68,-86 112.32,-86 112.32,-122"/>
<text text-anchor="middle" x="75" y="-99.8" font-family="Times,serif" font-size="14.00">IonToggle</text>
</g>
<!-- IonToggle&#45;&gt;TokenUriInputModule -->
<g id="edge6" class="edge">
<title>IonToggle&#45;&gt;TokenUriInputModule</title>
<path fill="none" stroke="black" d="M107.03,-122.02C107.03,-139.37 107.03,-163 107.03,-163 107.03,-163 161.43,-163 161.43,-163"/>
<polygon fill="black" stroke="black" points="161.43,-166.5 171.43,-163 161.43,-159.5 161.43,-166.5"/>
</g>
<!-- IonInput  -->
<g id="node8" class="node">
<title>IonInput </title>
<polygon fill="#fb8072" stroke="black" points="519.71,-252 452.29,-252 452.29,-216 519.71,-216 519.71,-252"/>
<text text-anchor="middle" x="486" y="-229.8" font-family="Times,serif" font-size="14.00">IonInput </text>
</g>
<!-- TokenUriInputModule&#45;&gt;IonInput  -->
<g id="edge7" class="edge">
<title>TokenUriInputModule&#45;&gt;IonInput </title>
<path fill="none" stroke="black" stroke-dasharray="5,2" d="M314.66,-173C381.66,-173 471.46,-173 471.46,-173 471.46,-173 471.46,-205.7 471.46,-205.7"/>
<polygon fill="black" stroke="black" points="467.96,-205.7 471.46,-215.7 474.96,-205.7 467.96,-205.7"/>
</g>
<!-- IonItem  -->
<g id="node9" class="node">
<title>IonItem </title>
<polygon fill="#fb8072" stroke="black" points="433.82,-252 370.18,-252 370.18,-216 433.82,-216 433.82,-252"/>
<text text-anchor="middle" x="402" y="-229.8" font-family="Times,serif" font-size="14.00">IonItem </text>
</g>
<!-- TokenUriInputModule&#45;&gt;IonItem  -->
<g id="edge8" class="edge">
<title>TokenUriInputModule&#45;&gt;IonItem </title>
<path fill="none" stroke="black" stroke-dasharray="5,2" d="M314.94,-180C351.97,-180 389.45,-180 389.45,-180 389.45,-180 389.45,-205.72 389.45,-205.72"/>
<polygon fill="black" stroke="black" points="385.95,-205.72 389.45,-215.72 392.95,-205.72 385.95,-205.72"/>
</g>
<!-- IonLabel  -->
<g id="node10" class="node">
<title>IonLabel </title>
<polygon fill="#fb8072" stroke="black" points="352.03,-252 281.97,-252 281.97,-216 352.03,-216 352.03,-252"/>
<text text-anchor="middle" x="317" y="-229.8" font-family="Times,serif" font-size="14.00">IonLabel </text>
</g>
<!-- TokenUriInputModule&#45;&gt;IonLabel  -->
<g id="edge9" class="edge">
<title>TokenUriInputModule&#45;&gt;IonLabel </title>
<path fill="none" stroke="black" stroke-dasharray="5,2" d="M298.37,-187.11C298.37,-187.11 298.37,-205.99 298.37,-205.99"/>
<polygon fill="black" stroke="black" points="294.87,-205.99 298.37,-215.99 301.87,-205.99 294.87,-205.99"/>
</g>
<!-- IonList  -->
<g id="node11" class="node">
<title>IonList </title>
<polygon fill="#fb8072" stroke="black" points="263.94,-252 204.06,-252 204.06,-216 263.94,-216 263.94,-252"/>
<text text-anchor="middle" x="234" y="-229.8" font-family="Times,serif" font-size="14.00">IonList </text>
</g>
<!-- TokenUriInputModule&#45;&gt;IonList  -->
<g id="edge10" class="edge">
<title>TokenUriInputModule&#45;&gt;IonList </title>
<path fill="none" stroke="black" stroke-dasharray="5,2" d="M234,-187.11C234,-187.11 234,-205.99 234,-205.99"/>
<polygon fill="black" stroke="black" points="230.5,-205.99 234,-215.99 237.5,-205.99 230.5,-205.99"/>
</g>
<!-- IonNote  -->
<g id="node12" class="node">
<title>IonNote </title>
<polygon fill="#fb8072" stroke="black" points="185.87,-252 120.13,-252 120.13,-216 185.87,-216 185.87,-252"/>
<text text-anchor="middle" x="153" y="-229.8" font-family="Times,serif" font-size="14.00">IonNote </text>
</g>
<!-- TokenUriInputModule&#45;&gt;IonNote  -->
<g id="edge11" class="edge">
<title>TokenUriInputModule&#45;&gt;IonNote </title>
<path fill="none" stroke="black" stroke-dasharray="5,2" d="M178.46,-187.11C178.46,-187.11 178.46,-205.99 178.46,-205.99"/>
<polygon fill="black" stroke="black" points="174.96,-205.99 178.46,-215.99 181.96,-205.99 174.96,-205.99"/>
</g>
<!-- IonToggle  -->
<g id="node13" class="node">
<title>IonToggle </title>
<polygon fill="#fb8072" stroke="black" points="101.82,-252 24.18,-252 24.18,-216 101.82,-216 101.82,-252"/>
<text text-anchor="middle" x="63" y="-229.8" font-family="Times,serif" font-size="14.00">IonToggle </text>
</g>
<!-- TokenUriInputModule&#45;&gt;IonToggle  -->
<g id="edge12" class="edge">
<title>TokenUriInputModule&#45;&gt;IonToggle </title>
<path fill="none" stroke="black" stroke-dasharray="5,2" d="M171.33,-175C123.71,-175 69.88,-175 69.88,-175 69.88,-175 69.88,-205.98 69.88,-205.98"/>
<polygon fill="black" stroke="black" points="66.38,-205.98 69.88,-215.98 73.38,-205.98 66.38,-205.98"/>
</g>
</g>
</svg>
