<?xml version="1.0" encoding="UTF-8" standalone="no"?>
<!DOCTYPE svg PUBLIC "-//W3C//DTD SVG 1.1//EN"
 "http://www.w3.org/Graphics/SVG/1.1/DTD/svg11.dtd">
<!-- Generated by graphviz version 2.47.0 (20210316.0004)
 -->
<!-- Title: dependencies Pages: 1 -->
<svg width="504pt" height="284pt"
 viewBox="0.00 0.00 504.00 284.00" xmlns="http://www.w3.org/2000/svg" xmlns:xlink="http://www.w3.org/1999/xlink">
<g id="graph0" class="graph" transform="scale(1 1) rotate(0) translate(4 280)">
<title>dependencies</title>
<polygon fill="white" stroke="transparent" points="-4,4 -4,-280 500,-280 500,4 -4,4"/>
<text text-anchor="start" x="227.01" y="-42.4" font-family="Times-12" font-weight="bold" font-size="14.00">Legend</text>
<polygon fill="#ffffb3" stroke="transparent" points="14,-10 14,-30 34,-30 34,-10 14,-10"/>
<text text-anchor="start" x="37.63" y="-15.4" font-family="Times-12" font-size="14.00"> &#160;Declarations</text>
<polygon fill="#8dd3c7" stroke="transparent" points="127,-10 127,-30 147,-30 147,-10 127,-10"/>
<text text-anchor="start" x="150.73" y="-15.4" font-family="Times-12" font-size="14.00"> &#160;Module</text>
<polygon fill="#80b1d3" stroke="transparent" points="213,-10 213,-30 233,-30 233,-10 213,-10"/>
<text text-anchor="start" x="236.78" y="-15.4" font-family="Times-12" font-size="14.00"> &#160;Bootstrap</text>
<polygon fill="#fdb462" stroke="transparent" points="310,-10 310,-30 330,-30 330,-10 310,-10"/>
<text text-anchor="start" x="333.67" y="-15.4" font-family="Times-12" font-size="14.00"> &#160;Providers</text>
<polygon fill="#fb8072" stroke="transparent" points="406,-10 406,-30 426,-30 426,-10 406,-10"/>
<text text-anchor="start" x="429.73" y="-15.4" font-family="Times-12" font-size="14.00"> &#160;Exports</text>
<g id="clust1" class="cluster">
<title>cluster_WelcomeModule</title>
<polygon fill="none" stroke="black" stroke-dasharray="1,5" points="35,-70 35,-268 461,-268 461,-70 35,-70"/>
</g>
<g id="clust3" class="cluster">
<title>cluster_WelcomeModule_imports</title>
<polygon fill="none" stroke="black" points="52,-78 52,-130 447,-130 447,-78 52,-78"/>
</g>
<g id="clust4" class="cluster">
<title>cluster_WelcomeModule_exports</title>
<polygon fill="none" stroke="black" points="43,-208 43,-260 453,-260 453,-208 43,-208"/>
</g>
<!-- IonContent -->
<g id="node1" class="node">
<title>IonContent</title>
<polygon fill="#8dd3c7" stroke="black" points="439.49,-122 436.49,-126 415.49,-126 412.49,-122 360.51,-122 360.51,-86 439.49,-86 439.49,-122"/>
<text text-anchor="middle" x="400" y="-99.8" font-family="Times,serif" font-size="14.00">IonContent</text>
</g>
<!-- WelcomeModule -->
<g id="node5" class="node">
<title>WelcomeModule</title>
<polygon fill="#8dd3c7" stroke="black" points="247.69,-187 244.69,-191 223.69,-191 220.69,-187 134.31,-187 134.31,-151 247.69,-151 247.69,-187"/>
<text text-anchor="middle" x="191" y="-164.8" font-family="Times,serif" font-size="14.00">WelcomeModule</text>
</g>
<!-- IonContent&#45;&gt;WelcomeModule -->
<g id="edge1" class="edge">
<title>IonContent&#45;&gt;WelcomeModule</title>
<path fill="none" stroke="black" d="M413.92,-122.02C413.92,-139.37 413.92,-163 413.92,-163 413.92,-163 257.83,-163 257.83,-163"/>
<polygon fill="black" stroke="black" points="257.83,-159.5 247.83,-163 257.83,-166.5 257.83,-159.5"/>
</g>
<!-- IonRippleEffect -->
<g id="node2" class="node">
<title>IonRippleEffect</title>
<polygon fill="#8dd3c7" stroke="black" points="342.19,-122 339.19,-126 318.19,-126 315.19,-122 235.81,-122 235.81,-86 342.19,-86 342.19,-122"/>
<text text-anchor="middle" x="289" y="-99.8" font-family="Times,serif" font-size="14.00">IonRippleEffect</text>
</g>
<!-- IonRippleEffect&#45;&gt;WelcomeModule -->
<g id="edge2" class="edge">
<title>IonRippleEffect&#45;&gt;WelcomeModule</title>
<path fill="none" stroke="black" d="M241.75,-122.11C241.75,-122.11 241.75,-140.99 241.75,-140.99"/>
<polygon fill="black" stroke="black" points="238.25,-140.99 241.75,-150.99 245.25,-140.99 238.25,-140.99"/>
</g>
<!-- IonText -->
<g id="node3" class="node">
<title>IonText</title>
<polygon fill="#8dd3c7" stroke="black" points="218.32,-122 215.32,-126 194.32,-126 191.32,-122 157.68,-122 157.68,-86 218.32,-86 218.32,-122"/>
<text text-anchor="middle" x="188" y="-99.8" font-family="Times,serif" font-size="14.00">IonText</text>
</g>
<!-- IonText&#45;&gt;WelcomeModule -->
<g id="edge3" class="edge">
<title>IonText&#45;&gt;WelcomeModule</title>
<path fill="none" stroke="black" d="M188,-122.11C188,-122.11 188,-140.99 188,-140.99"/>
<polygon fill="black" stroke="black" points="184.5,-140.99 188,-150.99 191.5,-140.99 184.5,-140.99"/>
</g>
<!-- RouterLink -->
<g id="node4" class="node">
<title>RouterLink</title>
<polygon fill="#8dd3c7" stroke="black" points="140.05,-122 137.05,-126 116.05,-126 113.05,-122 59.95,-122 59.95,-86 140.05,-86 140.05,-122"/>
<text text-anchor="middle" x="100" y="-99.8" font-family="Times,serif" font-size="14.00">RouterLink</text>
</g>
<!-- RouterLink&#45;&gt;WelcomeModule -->
<g id="edge4" class="edge">
<title>RouterLink&#45;&gt;WelcomeModule</title>
<path fill="none" stroke="black" d="M140.06,-104C145.39,-104 149.06,-104 149.06,-104 149.06,-104 149.06,-140.89 149.06,-140.89"/>
<polygon fill="black" stroke="black" points="145.56,-140.89 149.06,-150.89 152.56,-140.89 145.56,-140.89"/>
</g>
<!-- IonContent  -->
<g id="node6" class="node">
<title>IonContent </title>
<polygon fill="#fb8072" stroke="black" points="445.49,-252 362.51,-252 362.51,-216 445.49,-216 445.49,-252"/>
<text text-anchor="middle" x="404" y="-229.8" font-family="Times,serif" font-size="14.00">IonContent </text>
</g>
<!-- WelcomeModule&#45;&gt;IonContent  -->
<g id="edge5" class="edge">
<title>WelcomeModule&#45;&gt;IonContent </title>
<path fill="none" stroke="black" stroke-dasharray="5,2" d="M247.81,-175C306.11,-175 388.33,-175 388.33,-175 388.33,-175 388.33,-205.98 388.33,-205.98"/>
<polygon fill="black" stroke="black" points="384.83,-205.98 388.33,-215.98 391.83,-205.98 384.83,-205.98"/>
</g>
<!-- IonRippleEffect  -->
<g id="node7" class="node">
<title>IonRippleEffect </title>
<polygon fill="#fb8072" stroke="black" points="344.69,-252 235.31,-252 235.31,-216 344.69,-216 344.69,-252"/>
<text text-anchor="middle" x="290" y="-229.8" font-family="Times,serif" font-size="14.00">IonRippleEffect </text>
</g>
<!-- WelcomeModule&#45;&gt;IonRippleEffect  -->
<g id="edge6" class="edge">
<title>WelcomeModule&#45;&gt;IonRippleEffect </title>
<path fill="none" stroke="black" stroke-dasharray="5,2" d="M241.38,-187.11C241.38,-187.11 241.38,-205.99 241.38,-205.99"/>
<polygon fill="black" stroke="black" points="237.88,-205.99 241.38,-215.99 244.88,-205.99 237.88,-205.99"/>
</g>
<!-- IonText  -->
<g id="node8" class="node">
<title>IonText </title>
<polygon fill="#fb8072" stroke="black" points="216.82,-252 153.18,-252 153.18,-216 216.82,-216 216.82,-252"/>
<text text-anchor="middle" x="185" y="-229.8" font-family="Times,serif" font-size="14.00">IonText </text>
</g>
<!-- WelcomeModule&#45;&gt;IonText  -->
<g id="edge7" class="edge">
<title>WelcomeModule&#45;&gt;IonText </title>
<path fill="none" stroke="black" stroke-dasharray="5,2" d="M185,-187.11C185,-187.11 185,-205.99 185,-205.99"/>
<polygon fill="black" stroke="black" points="181.5,-205.99 185,-215.99 188.5,-205.99 181.5,-205.99"/>
</g>
<!-- RouterLink  -->
<g id="node9" class="node">
<title>RouterLink </title>
<polygon fill="#fb8072" stroke="black" points="135.05,-252 50.95,-252 50.95,-216 135.05,-216 135.05,-252"/>
<text text-anchor="middle" x="93" y="-229.8" font-family="Times,serif" font-size="14.00">RouterLink </text>
</g>
<!-- WelcomeModule&#45;&gt;RouterLink  -->
<g id="edge8" class="edge">
<title>WelcomeModule&#45;&gt;RouterLink </title>
<path fill="none" stroke="black" stroke-dasharray="5,2" d="M144.06,-187.11C144.06,-206.34 144.06,-234 144.06,-234 144.06,-234 143.17,-234 143.17,-234"/>
<polygon fill="black" stroke="black" points="145.16,-230.5 135.16,-234 145.16,-237.5 145.16,-230.5"/>
</g>
</g>
</svg>
