<?xml version="1.0" encoding="UTF-8" standalone="no"?>
<!DOCTYPE svg PUBLIC "-//W3C//DTD SVG 1.1//EN"
 "http://www.w3.org/Graphics/SVG/1.1/DTD/svg11.dtd">
<!-- Generated by graphviz version 2.47.0 (20210316.0004)
 -->
<!-- Title: dependencies Pages: 1 -->
<svg width="681pt" height="284pt"
 viewBox="0.00 0.00 681.00 284.00" xmlns="http://www.w3.org/2000/svg" xmlns:xlink="http://www.w3.org/1999/xlink">
<g id="graph0" class="graph" transform="scale(1 1) rotate(0) translate(4 280)">
<title>dependencies</title>
<polygon fill="white" stroke="transparent" points="-4,4 -4,-280 677,-280 677,4 -4,4"/>
<text text-anchor="start" x="315.51" y="-42.4" font-family="Times-12" font-weight="bold" font-size="14.00">Legend</text>
<polygon fill="#ffffb3" stroke="transparent" points="102.5,-10 102.5,-30 122.5,-30 122.5,-10 102.5,-10"/>
<text text-anchor="start" x="126.13" y="-15.4" font-family="Times-12" font-size="14.00"> &#160;Declarations</text>
<polygon fill="#8dd3c7" stroke="transparent" points="215.5,-10 215.5,-30 235.5,-30 235.5,-10 215.5,-10"/>
<text text-anchor="start" x="239.23" y="-15.4" font-family="Times-12" font-size="14.00"> &#160;Module</text>
<polygon fill="#80b1d3" stroke="transparent" points="301.5,-10 301.5,-30 321.5,-30 321.5,-10 301.5,-10"/>
<text text-anchor="start" x="325.28" y="-15.4" font-family="Times-12" font-size="14.00"> &#160;Bootstrap</text>
<polygon fill="#fdb462" stroke="transparent" points="398.5,-10 398.5,-30 418.5,-30 418.5,-10 398.5,-10"/>
<text text-anchor="start" x="422.17" y="-15.4" font-family="Times-12" font-size="14.00"> &#160;Providers</text>
<polygon fill="#fb8072" stroke="transparent" points="494.5,-10 494.5,-30 514.5,-30 514.5,-10 494.5,-10"/>
<text text-anchor="start" x="518.23" y="-15.4" font-family="Times-12" font-size="14.00"> &#160;Exports</text>
<g id="clust1" class="cluster">
<title>cluster_AccountCardModule</title>
<polygon fill="none" stroke="black" stroke-dasharray="1,5" points="8,-70 8,-268 665,-268 665,-70 8,-70"/>
</g>
<g id="clust3" class="cluster">
<title>cluster_AccountCardModule_imports</title>
<polygon fill="none" stroke="black" points="27,-78 27,-130 649,-130 649,-78 27,-78"/>
</g>
<g id="clust4" class="cluster">
<title>cluster_AccountCardModule_exports</title>
<polygon fill="none" stroke="black" points="16,-208 16,-260 657,-260 657,-208 16,-208"/>
</g>
<!-- IonCardHeader -->
<g id="node1" class="node">
<title>IonCardHeader</title>
<polygon fill="#8dd3c7" stroke="black" points="641.28,-122 638.28,-126 617.28,-126 614.28,-122 538.72,-122 538.72,-86 641.28,-86 641.28,-122"/>
<text text-anchor="middle" x="590" y="-99.8" font-family="Times,serif" font-size="14.00">IonCardHeader</text>
</g>
<!-- AccountCardModule -->
<g id="node7" class="node">
<title>AccountCardModule</title>
<polygon fill="#8dd3c7" stroke="black" points="334.19,-187 331.19,-191 310.19,-191 307.19,-187 199.81,-187 199.81,-151 334.19,-151 334.19,-187"/>
<text text-anchor="middle" x="267" y="-164.8" font-family="Times,serif" font-size="14.00">AccountCardModule</text>
</g>
<!-- IonCardHeader&#45;&gt;AccountCardModule -->
<g id="edge1" class="edge">
<title>IonCardHeader&#45;&gt;AccountCardModule</title>
<path fill="none" stroke="black" d="M608.46,-122.27C608.46,-140.56 608.46,-166 608.46,-166 608.46,-166 344.46,-166 344.46,-166"/>
<polygon fill="black" stroke="black" points="344.46,-162.5 334.46,-166 344.46,-169.5 344.46,-162.5"/>
</g>
<!-- IonCardSubtitle -->
<g id="node2" class="node">
<title>IonCardSubtitle</title>
<polygon fill="#8dd3c7" stroke="black" points="520.93,-122 517.93,-126 496.93,-126 493.93,-122 415.07,-122 415.07,-86 520.93,-86 520.93,-122"/>
<text text-anchor="middle" x="468" y="-99.8" font-family="Times,serif" font-size="14.00">IonCardSubtitle</text>
</g>
<!-- IonCardSubtitle&#45;&gt;AccountCardModule -->
<g id="edge2" class="edge">
<title>IonCardSubtitle&#45;&gt;AccountCardModule</title>
<path fill="none" stroke="black" d="M485.99,-122.01C485.99,-138.05 485.99,-159 485.99,-159 485.99,-159 344.19,-159 344.19,-159"/>
<polygon fill="black" stroke="black" points="344.19,-155.5 334.19,-159 344.19,-162.5 344.19,-155.5"/>
</g>
<!-- IonCardTitle -->
<g id="node3" class="node">
<title>IonCardTitle</title>
<polygon fill="#8dd3c7" stroke="black" points="397.31,-122 394.31,-126 373.31,-126 370.31,-122 308.69,-122 308.69,-86 397.31,-86 397.31,-122"/>
<text text-anchor="middle" x="353" y="-99.8" font-family="Times,serif" font-size="14.00">IonCardTitle</text>
</g>
<!-- IonCardTitle&#45;&gt;AccountCardModule -->
<g id="edge3" class="edge">
<title>IonCardTitle&#45;&gt;AccountCardModule</title>
<path fill="none" stroke="black" d="M321.47,-122.11C321.47,-122.11 321.47,-140.99 321.47,-140.99"/>
<polygon fill="black" stroke="black" points="317.97,-140.99 321.47,-150.99 324.97,-140.99 317.97,-140.99"/>
</g>
<!-- IonCol -->
<g id="node4" class="node">
<title>IonCol</title>
<polygon fill="#8dd3c7" stroke="black" points="290.39,-122 287.39,-126 266.39,-126 263.39,-122 235.61,-122 235.61,-86 290.39,-86 290.39,-122"/>
<text text-anchor="middle" x="263" y="-99.8" font-family="Times,serif" font-size="14.00">IonCol</text>
</g>
<!-- IonCol&#45;&gt;AccountCardModule -->
<g id="edge4" class="edge">
<title>IonCol&#45;&gt;AccountCardModule</title>
<path fill="none" stroke="black" d="M263,-122.11C263,-122.11 263,-140.99 263,-140.99"/>
<polygon fill="black" stroke="black" points="259.5,-140.99 263,-150.99 266.5,-140.99 259.5,-140.99"/>
</g>
<!-- IonProgressBar -->
<g id="node5" class="node">
<title>IonProgressBar</title>
<polygon fill="#8dd3c7" stroke="black" points="217.58,-122 214.58,-126 193.58,-126 190.58,-122 114.42,-122 114.42,-86 217.58,-86 217.58,-122"/>
<text text-anchor="middle" x="166" y="-99.8" font-family="Times,serif" font-size="14.00">IonProgressBar</text>
</g>
<!-- IonProgressBar&#45;&gt;AccountCardModule -->
<g id="edge5" class="edge">
<title>IonProgressBar&#45;&gt;AccountCardModule</title>
<path fill="none" stroke="black" d="M208.72,-122.11C208.72,-122.11 208.72,-140.99 208.72,-140.99"/>
<polygon fill="black" stroke="black" points="205.22,-140.99 208.72,-150.99 212.22,-140.99 205.22,-140.99"/>
</g>
<!-- IonRow -->
<g id="node6" class="node">
<title>IonRow</title>
<polygon fill="#8dd3c7" stroke="black" points="96.6,-122 93.6,-126 72.6,-126 69.6,-122 35.4,-122 35.4,-86 96.6,-86 96.6,-122"/>
<text text-anchor="middle" x="66" y="-99.8" font-family="Times,serif" font-size="14.00">IonRow</text>
</g>
<!-- IonRow&#45;&gt;AccountCardModule -->
<g id="edge6" class="edge">
<title>IonRow&#45;&gt;AccountCardModule</title>
<path fill="none" stroke="black" d="M92.43,-122.02C92.43,-139.37 92.43,-163 92.43,-163 92.43,-163 189.51,-163 189.51,-163"/>
<polygon fill="black" stroke="black" points="189.51,-166.5 199.51,-163 189.51,-159.5 189.51,-166.5"/>
</g>
<!-- IonCardHeader  -->
<g id="node8" class="node">
<title>IonCardHeader </title>
<polygon fill="#fb8072" stroke="black" points="648.78,-252 543.22,-252 543.22,-216 648.78,-216 648.78,-252"/>
<text text-anchor="middle" x="596" y="-229.8" font-family="Times,serif" font-size="14.00">IonCardHeader </text>
</g>
<!-- AccountCardModule&#45;&gt;IonCardHeader  -->
<g id="edge7" class="edge">
<title>AccountCardModule&#45;&gt;IonCardHeader </title>
<path fill="none" stroke="black" stroke-dasharray="5,2" d="M334.38,-173C425.24,-173 575.79,-173 575.79,-173 575.79,-173 575.79,-205.7 575.79,-205.7"/>
<polygon fill="black" stroke="black" points="572.29,-205.7 575.79,-215.7 579.29,-205.7 572.29,-205.7"/>
</g>
<!-- IonCardSubtitle  -->
<g id="node9" class="node">
<title>IonCardSubtitle </title>
<polygon fill="#fb8072" stroke="black" points="525.43,-252 416.57,-252 416.57,-216 525.43,-216 525.43,-252"/>
<text text-anchor="middle" x="471" y="-229.8" font-family="Times,serif" font-size="14.00">IonCardSubtitle </text>
</g>
<!-- AccountCardModule&#45;&gt;IonCardSubtitle  -->
<g id="edge8" class="edge">
<title>AccountCardModule&#45;&gt;IonCardSubtitle </title>
<path fill="none" stroke="black" stroke-dasharray="5,2" d="M334.3,-180C386.94,-180 451.26,-180 451.26,-180 451.26,-180 451.26,-205.72 451.26,-205.72"/>
<polygon fill="black" stroke="black" points="447.76,-205.72 451.26,-215.72 454.76,-205.72 447.76,-205.72"/>
</g>
<!-- IonCardTitle  -->
<g id="node10" class="node">
<title>IonCardTitle </title>
<polygon fill="#fb8072" stroke="black" points="398.81,-252 307.19,-252 307.19,-216 398.81,-216 398.81,-252"/>
<text text-anchor="middle" x="353" y="-229.8" font-family="Times,serif" font-size="14.00">IonCardTitle </text>
</g>
<!-- AccountCardModule&#45;&gt;IonCardTitle  -->
<g id="edge9" class="edge">
<title>AccountCardModule&#45;&gt;IonCardTitle </title>
<path fill="none" stroke="black" stroke-dasharray="5,2" d="M320.59,-187.11C320.59,-187.11 320.59,-205.99 320.59,-205.99"/>
<polygon fill="black" stroke="black" points="317.09,-205.99 320.59,-215.99 324.09,-205.99 317.09,-205.99"/>
</g>
<!-- IonCol  -->
<g id="node11" class="node">
<title>IonCol </title>
<polygon fill="#fb8072" stroke="black" points="289.39,-252 230.61,-252 230.61,-216 289.39,-216 289.39,-252"/>
<text text-anchor="middle" x="260" y="-229.8" font-family="Times,serif" font-size="14.00">IonCol </text>
</g>
<!-- AccountCardModule&#45;&gt;IonCol  -->
<g id="edge10" class="edge">
<title>AccountCardModule&#45;&gt;IonCol </title>
<path fill="none" stroke="black" stroke-dasharray="5,2" d="M260,-187.11C260,-187.11 260,-205.99 260,-205.99"/>
<polygon fill="black" stroke="black" points="256.5,-205.99 260,-215.99 263.5,-205.99 256.5,-205.99"/>
</g>
<!-- IonProgressBar  -->
<g id="node12" class="node">
<title>IonProgressBar </title>
<polygon fill="#fb8072" stroke="black" points="213.08,-252 106.92,-252 106.92,-216 213.08,-216 213.08,-252"/>
<text text-anchor="middle" x="160" y="-229.8" font-family="Times,serif" font-size="14.00">IonProgressBar </text>
</g>
<!-- AccountCardModule&#45;&gt;IonProgressBar  -->
<g id="edge11" class="edge">
<title>AccountCardModule&#45;&gt;IonProgressBar </title>
<path fill="none" stroke="black" stroke-dasharray="5,2" d="M206.6,-187.11C206.6,-187.11 206.6,-205.99 206.6,-205.99"/>
<polygon fill="black" stroke="black" points="203.1,-205.99 206.6,-215.99 210.1,-205.99 203.1,-205.99"/>
</g>
<!-- IonRow  -->
<g id="node13" class="node">
<title>IonRow </title>
<polygon fill="#fb8072" stroke="black" points="88.11,-252 23.89,-252 23.89,-216 88.11,-216 88.11,-252"/>
<text text-anchor="middle" x="56" y="-229.8" font-family="Times,serif" font-size="14.00">IonRow </text>
</g>
<!-- AccountCardModule&#45;&gt;IonRow  -->
<g id="edge12" class="edge">
<title>AccountCardModule&#45;&gt;IonRow </title>
<path fill="none" stroke="black" stroke-dasharray="5,2" d="M199.83,-175C140.01,-175 61.88,-175 61.88,-175 61.88,-175 61.88,-205.98 61.88,-205.98"/>
<polygon fill="black" stroke="black" points="58.38,-205.98 61.88,-215.98 65.38,-205.98 58.38,-205.98"/>
</g>
</g>
</svg>
