<?xml version="1.0" encoding="UTF-8" standalone="no"?>
<!DOCTYPE svg PUBLIC "-//W3C//DTD SVG 1.1//EN"
 "http://www.w3.org/Graphics/SVG/1.1/DTD/svg11.dtd">
<!-- Generated by graphviz version 2.47.0 (20210316.0004)
 -->
<!-- Title: dependencies Pages: 1 -->
<svg width="504pt" height="284pt"
 viewBox="0.00 0.00 504.00 284.00" xmlns="http://www.w3.org/2000/svg" xmlns:xlink="http://www.w3.org/1999/xlink">
<g id="graph0" class="graph" transform="scale(1 1) rotate(0) translate(4 280)">
<title>dependencies</title>
<polygon fill="white" stroke="transparent" points="-4,4 -4,-280 500,-280 500,4 -4,4"/>
<text text-anchor="start" x="227.01" y="-42.4" font-family="Times-12" font-weight="bold" font-size="14.00">Legend</text>
<polygon fill="#ffffb3" stroke="transparent" points="14,-10 14,-30 34,-30 34,-10 14,-10"/>
<text text-anchor="start" x="37.63" y="-15.4" font-family="Times-12" font-size="14.00"> &#160;Declarations</text>
<polygon fill="#8dd3c7" stroke="transparent" points="127,-10 127,-30 147,-30 147,-10 127,-10"/>
<text text-anchor="start" x="150.73" y="-15.4" font-family="Times-12" font-size="14.00"> &#160;Module</text>
<polygon fill="#80b1d3" stroke="transparent" points="213,-10 213,-30 233,-30 233,-10 213,-10"/>
<text text-anchor="start" x="236.78" y="-15.4" font-family="Times-12" font-size="14.00"> &#160;Bootstrap</text>
<polygon fill="#fdb462" stroke="transparent" points="310,-10 310,-30 330,-30 330,-10 310,-10"/>
<text text-anchor="start" x="333.67" y="-15.4" font-family="Times-12" font-size="14.00"> &#160;Providers</text>
<polygon fill="#fb8072" stroke="transparent" points="406,-10 406,-30 426,-30 426,-10 406,-10"/>
<text text-anchor="start" x="429.73" y="-15.4" font-family="Times-12" font-size="14.00"> &#160;Exports</text>
<g id="clust1" class="cluster">
<title>cluster_PasteButtonModule</title>
<polygon fill="none" stroke="black" stroke-dasharray="1,5" points="153,-70 153,-268 343,-268 343,-70 153,-70"/>
</g>
<g id="clust3" class="cluster">
<title>cluster_PasteButtonModule_imports</title>
<polygon fill="none" stroke="black" points="165,-78 165,-130 331,-130 331,-78 165,-78"/>
</g>
<g id="clust4" class="cluster">
<title>cluster_PasteButtonModule_exports</title>
<polygon fill="none" stroke="black" points="161,-208 161,-260 335,-260 335,-208 161,-208"/>
</g>
<!-- IonButton -->
<g id="node1" class="node">
<title>IonButton</title>
<polygon fill="#8dd3c7" stroke="black" points="323.28,-122 320.28,-126 299.28,-126 296.28,-122 250.72,-122 250.72,-86 323.28,-86 323.28,-122"/>
<text text-anchor="middle" x="287" y="-99.8" font-family="Times,serif" font-size="14.00">IonButton</text>
</g>
<!-- PasteButtonModule -->
<g id="node3" class="node">
<title>PasteButtonModule</title>
<polygon fill="#8dd3c7" stroke="black" points="311.71,-187 308.71,-191 287.71,-191 284.71,-187 184.29,-187 184.29,-151 311.71,-151 311.71,-187"/>
<text text-anchor="middle" x="248" y="-164.8" font-family="Times,serif" font-size="14.00">PasteButtonModule</text>
</g>
<!-- IonButton&#45;&gt;PasteButtonModule -->
<g id="edge1" class="edge">
<title>IonButton&#45;&gt;PasteButtonModule</title>
<path fill="none" stroke="black" d="M281.11,-122.11C281.11,-122.11 281.11,-140.99 281.11,-140.99"/>
<polygon fill="black" stroke="black" points="277.61,-140.99 281.11,-150.99 284.61,-140.99 277.61,-140.99"/>
</g>
<!-- IonIcon -->
<g id="node2" class="node">
<title>IonIcon</title>
<polygon fill="#8dd3c7" stroke="black" points="232.54,-122 229.54,-126 208.54,-126 205.54,-122 173.46,-122 173.46,-86 232.54,-86 232.54,-122"/>
<text text-anchor="middle" x="203" y="-99.8" font-family="Times,serif" font-size="14.00">IonIcon</text>
</g>
<!-- IonIcon&#45;&gt;PasteButtonModule -->
<g id="edge2" class="edge">
<title>IonIcon&#45;&gt;PasteButtonModule</title>
<path fill="none" stroke="black" d="M208.58,-122.11C208.58,-122.11 208.58,-140.99 208.58,-140.99"/>
<polygon fill="black" stroke="black" points="205.08,-140.99 208.58,-150.99 212.08,-140.99 205.08,-140.99"/>
</g>
<!-- IonButton  -->
<g id="node4" class="node">
<title>IonButton </title>
<polygon fill="#fb8072" stroke="black" points="327.28,-252 250.72,-252 250.72,-216 327.28,-216 327.28,-252"/>
<text text-anchor="middle" x="289" y="-229.8" font-family="Times,serif" font-size="14.00">IonButton </text>
</g>
<!-- PasteButtonModule&#45;&gt;IonButton  -->
<g id="edge3" class="edge">
<title>PasteButtonModule&#45;&gt;IonButton </title>
<path fill="none" stroke="black" stroke-dasharray="5,2" d="M281.23,-187.11C281.23,-187.11 281.23,-205.99 281.23,-205.99"/>
<polygon fill="black" stroke="black" points="277.73,-205.99 281.23,-215.99 284.73,-205.99 277.73,-205.99"/>
</g>
<!-- IonIcon  -->
<g id="node5" class="node">
<title>IonIcon </title>
<polygon fill="#fb8072" stroke="black" points="232.54,-252 169.46,-252 169.46,-216 232.54,-216 232.54,-252"/>
<text text-anchor="middle" x="201" y="-229.8" font-family="Times,serif" font-size="14.00">IonIcon </text>
</g>
<!-- PasteButtonModule&#45;&gt;IonIcon  -->
<g id="edge4" class="edge">
<title>PasteButtonModule&#45;&gt;IonIcon </title>
<path fill="none" stroke="black" stroke-dasharray="5,2" d="M208.46,-187.11C208.46,-187.11 208.46,-205.99 208.46,-205.99"/>
<polygon fill="black" stroke="black" points="204.96,-205.99 208.46,-215.99 211.96,-205.99 204.96,-205.99"/>
</g>
</g>
</svg>
